<svg xmlns="http://www.w3.org/2000/svg" viewBox="0 0 267.35 137.95"><g id="Layer_2" data-name="Layer 2"><g id="Layer_1-2" data-name="Layer 1"><path d="M17.86,57.28c.07,0,.06-.1,0-.1s-.06.1,0,.1Z"/><path d="M1.53,49.4C-.37,42.34,3,34.89,6.34,28.82a61.05,61.05,0,0,1,11.4-14.76A51.36,51.36,0,0,1,33.19,3.59C38.56,1.42,46,.84,48.38,7.45a19.66,19.66,0,0,1,.55,9C48.49,20,47.79,23.51,47,27a194.76,194.76,0,0,1-6,21.47c-4.85,14.24-11,28-17.46,41.63Q18,101.81,12,113.28c-2,3.9-4.12,7.77-6.19,11.65A77.84,77.84,0,0,0,.27,136.68c-.33,1,1.13,1.71,1.79,1a59.21,59.21,0,0,0,6.62-10.08c2-3.56,3.9-7.16,5.79-10.78q5.7-10.95,10.92-22.15C32.2,80.08,38.67,65.3,43.72,50A179.19,179.19,0,0,0,49.8,27.16a105.51,105.51,0,0,0,1.64-11A21.12,21.12,0,0,0,50.57,7,10.33,10.33,0,0,0,44.83.84,14.27,14.27,0,0,0,36,.55c-6.23,1.53-12,5.53-16.81,9.62A60.25,60.25,0,0,0,6.57,25C3.12,30.67-.06,37.56,0,44.33a14.86,14.86,0,0,0,1.05,5.22.25.25,0,0,0,.48-.15Z"/><path d="M9,69.05c-.44-.42.42-.69.69-.85l1.15-.67,2.51-1.43c1.67-.95,3.33-1.93,5-2.89,3.23-1.85,6.53-3.59,9.92-5.14a67,67,0,0,1,10.57-3.83,46.44,46.44,0,0,1,5.49-1.12,11.41,11.41,0,0,1,5.51.14c3,1.13,3.53,4.75,3.58,7.57a62.26,62.26,0,0,1-.86,11,69.58,69.58,0,0,1-7,21C42,99.63,37.3,106.55,30.08,109.9l2,1.85a55.09,55.09,0,0,1,33-25.46l-1.8-1.67L58.48,98.27a1.43,1.43,0,0,0,2.14,1.53,156.26,156.26,0,0,0,15-13.14l-2,.31c.33.21.33.65.19,1.25a7.51,7.51,0,0,1-1.21,2.33c-1.19,1.89-1.9,4-.78,6a1.68,1.68,0,0,0,2.29.53c5-3.46,10-7,15-10.4.57-.39,1.77-1.47,2.48-.91.52.41.48,1.59.42,2.16a13.14,13.14,0,0,1-3.29,6.59l2.42,2.29A67.87,67.87,0,0,1,104,84.94l-2-.2c.57.66-.73,3.17-1,4-.55,1.71-.65,3.73,1,4.84,2.3,1.51,5.22-.17,7.06-1.68a12.59,12.59,0,0,0,4.23-6.73,1.69,1.69,0,0,0-2.51-1.79,8.61,8.61,0,0,0-4.49,6,1.69,1.69,0,0,0,2.51,1.79l7.52-3.77-2.1-2.56c-2.7,2.41-1.22,6.41,1.31,8.3,3.27,2.44,7.18,1,9.94-1.49a28.35,28.35,0,0,0,3.87-4.73c1.34-1.91,2.68-3.81,4-5.73,2.73-4,5.37-8,7.74-12.17a85.77,85.77,0,0,0,6.71-14.65c.64-1.88-2.16-2.68-3.1-1.17a475.08,475.08,0,0,0-25.36,45.11,39.44,39.44,0,0,0-2.8,6.18c-.51,1.79-.23,3.54,1.41,4.56s2.94-1.55,1.37-2.53c.19.12.1.21.1,0a2.78,2.78,0,0,1,.22-.81c.35-.84.85-1.65,1.25-2.46q1.32-2.66,2.67-5.3c1.8-3.53,3.57-7.07,5.41-10.58q5.58-10.6,11.65-21,3.42-5.84,7-11.57l-3.1-1.17a96.63,96.63,0,0,1-10.73,20.92c-2.18,3.34-4.45,6.61-6.74,9.87-1.73,2.46-3.72,5.75-6.83,6.58a3.19,3.19,0,0,1-3.39-1.16c-.7-.84-1.07-1.9-.18-2.7,1.51-1.35-.53-3.35-2.1-2.56l-7.51,3.77,2.5,1.79a5.4,5.4,0,0,1,3-3.9l-2.51-1.79a9.25,9.25,0,0,1-3.2,5,7.53,7.53,0,0,1-2.78,1.4c-.26.07-.34-.2-.18,0s0-.21,0-.25c.57-2.81,2.58-5.63.3-8.23a1.66,1.66,0,0,0-2-.2A70.94,70.94,0,0,0,88.82,94.55c-1.37,1.65,1,3.93,2.42,2.29,2.05-2.41,3.88-5.5,4.17-8.71.22-2.58-.89-5.6-3.85-5.79-1.73-.11-3.16.89-4.51,1.82l-4.81,3.33-9.82,6.8,2.29.53c-.5-.91.61-2.3,1.08-3A9,9,0,0,0,77.09,89c.49-2.1-.14-4.18-2.27-5a1.58,1.58,0,0,0-1.53.47A86.14,86.14,0,0,1,59.11,97.38l2.15,1.53L66,85.26c.37-1.07-.86-1.93-1.79-1.67A58,58,0,0,0,29.6,110.42c-.77,1.33.8,2.38,2,1.84,7.67-3.57,12.82-11.06,16.6-18.36a70.85,70.85,0,0,0,7.53-25.83c.36-3.84.76-8.11-.4-11.86-1.22-4-4.44-5.9-8.51-5.74a44.08,44.08,0,0,0-13,2.9,83.22,83.22,0,0,0-12,5.61c-2.27,1.27-4.5,2.59-6.68,4a59.83,59.83,0,0,0-6.23,4.17c-.59.5-1.88,2.55-.32,2.76.68.08,1.55-.77.77-1.24-.23-.14-.47.2-.28.39Z"/><path d="M175.62,72.4C180.47,69,186.53,64.65,185.94,58a8,8,0,0,0-3.72-6.4c-3-1.73-6.54-.72-9.48.66a32.77,32.77,0,0,0-14.51,14.18c-2.75,5.13-6.15,14.1.26,17.91,7.33,4.36,14.48-2.34,21.41-4l-1.28-.3c1.65,1.94-.12,5.36-.91,7.31q-1.56,3.8-3.39,7.46a101.93,101.93,0,0,1-19.68,27.07c-2,2-4.16,4-6.37,5.78-1.79,1.46-4.58,3.68-7.05,2.66-4-1.64-1.18-8,.32-10.47a56.07,56.07,0,0,1,10.14-11.76c7.87-7.12,17-12.65,25.32-19.21a102.18,102.18,0,0,0,25.45-29.32l-2.78-1.5A143.87,143.87,0,0,1,182,90.84l2.53,1.83a11.85,11.85,0,0,1,6.35-4.89l-2-1.85a52.94,52.94,0,0,0-.9,12.75,1.59,1.59,0,0,0,2,1.43,25.46,25.46,0,0,0,15.24-12.78,1.58,1.58,0,0,0-2.2-2.07,9.54,9.54,0,0,0-3.64,13.08,1.59,1.59,0,0,0,1.79.67,18.2,18.2,0,0,0,7.18-4.79c1.73-1.9,4.39-5.32,3.15-8-1-2.18-4-2.71-6-1.57-2.56,1.48-2.73,4.88-2,7.41a1.58,1.58,0,0,0,2.33.86c2.34-1.48,4.67-3,7-4.44,1.84-1.15,3.76-1.93,5.47-.13,2.8,2.94-1.24,6.71-4.3,4.75l.08,2.7A139.79,139.79,0,0,0,244,63.63c1.14-1.69-1.62-3.11-2.76-1.49a90.57,90.57,0,0,0-12.54,25.79,1.64,1.64,0,0,0,2.77,1.48,37.17,37.17,0,0,1,11.92-9l-2.67-1.9c-1.27,9.5-9.9,21.55-.5,29.66,3.47,3,8.11,3.94,12.56,4.19a50.33,50.33,0,0,0,7.16-.17c2.3-.21,4.81-.92,6.39-2.73a4,4,0,0,0-2.1-6.54c-3.33-.9-6.73.39-9.88,1.27-1.93.53-1,3.5.93,3a16.42,16.42,0,0,1,3.7-.44,25.42,25.42,0,0,1,3.7-.06,1.53,1.53,0,0,1,.79.21c.11.1,0-.09,0-.15-.15.46-1.15.87-1.59,1a16.71,16.71,0,0,1-5.46.66,35.93,35.93,0,0,1-5.29-.15c-3.32-.39-6.88-1.33-9.16-4-2.66-3-2.4-7.11-1.49-10.78,1.22-5,3.31-9.58,3.76-14.71.12-1.45-1.68-2-2.71-1.43a43.27,43.27,0,0,0-12.41,9.8l2.77,1.48a85.48,85.48,0,0,1,12.13-25l-2.76-1.49a135.37,135.37,0,0,1-28.73,31,1.59,1.59,0,0,0,.09,2.7,6.64,6.64,0,0,0,7.47-.49,6,6,0,0,0,1.7-7.61,6.59,6.59,0,0,0-7.42-3.44,19,19,0,0,0-4.87,2.64l-5.24,3.32,2.32.86c-.32-1.07-.66-3.18.63-3.82a1.37,1.37,0,0,1,1.33.06c.48.48-.14,1.36-.4,1.84A14.75,14.75,0,0,1,200.23,96l1.8.67a6.39,6.39,0,0,1,2.63-8.78l-2.2-2.07A22.31,22.31,0,0,1,189,97.12l2,1.43a49.62,49.62,0,0,1,.83-11.92,1.59,1.59,0,0,0-2-1.85,15.24,15.24,0,0,0-8.18,6.39c-.95,1.49,1.47,3.27,2.52,1.83a147,147,0,0,0,18.21-33.44c.71-1.84-1.73-3.31-2.78-1.5A98.47,98.47,0,0,1,175,86.44c-9,7-18.78,12.92-27.05,20.78a61.54,61.54,0,0,0-5.79,6.28,35.29,35.29,0,0,0-4.55,6.87c-1.79,3.86-2.75,9.86,1.56,12.47,5.44,3.29,11.39-2.94,15-6.31a103.22,103.22,0,0,0,12.06-13.36A105.26,105.26,0,0,0,177,95.78a93.38,93.38,0,0,0,4-9.39c1-2.76,1.5-5.84-.56-8.24a1.28,1.28,0,0,0-1.27-.3c-5.59,1.35-10.65,6.12-16.66,5.22-2.39-.36-4.64-1.67-5.13-4.2-.57-2.93.73-6.42,1.86-9.1a34.21,34.21,0,0,1,10.41-13.65c2.44-1.91,5.16-3.79,8.34-4.09a6,6,0,0,1,6.55,4.43c2.13,7-4,12.1-9,15.71-.13.1,0,.33.14.23Z"/><path d="M69.8,122.91c.41-.65-.49-.87-1-.68-1.09.41-.37,1.65.38,2a5.86,5.86,0,0,0,2.67.27c1.57,0,3.15-.1,4.73-.17l9.21-.37c11.94-.52,23.88-1.2,35.83-1.66q36.11-1.38,72.24-1.5,10.22,0,20.43,0l10,.1c3.48.05,7,.24,10.46.15l-.12-2.82a35.37,35.37,0,0,0-4.09.49c-1.35.21-2.73.25-4.09.39-.41,0-.53.71-.07.77,1.41.2,2.84.3,4.24.57a32.11,32.11,0,0,0,4.13.6c1.81.11,1.68-2.71-.12-2.82-5.45-.33-11-.17-16.44-.21S207.39,118,202,118q-16.32,0-32.64.31-32.62.59-65.23,2.46c-6.13.35-12.27.67-18.4,1.15-3,.24-6,.51-8.94.78-1.58.14-3.15.3-4.72.46-.62.07-1.25.19-1.87.2a2.16,2.16,0,0,1-.81-.06l-.16-.84c.25-.07.37,0,.35.29s.14.27.23.13Z"/></g></g></svg>